<svg width="580" height="400" xmlns="http://www.w3.org/2000/svg">
 <!-- Created with Method Draw - http://github.com/duopixel/Method-Draw/ -->

 <g>
  <title>background</title>
  <rect fill="#fff" id="canvas_background" height="402" width="582" y="-1" x="-1"/>
  <g display="none" overflow="visible" y="0" x="0" height="100%" width="100%" id="canvasGrid">
   <rect fill="url(#gridpattern)" stroke-width="0" y="0" x="0" height="100%" width="100%"/>
  </g>
 </g>
 <g>
  <title>Layer 1</title>
  <g id="svg_23">
   <g transform="matrix(18.484933399196052,0,0,18.484933399196052,0,0) " id="svg_5">
    <path id="svg_6" fill="#000000" d="m28.694452,21.843122l-26.012,0c-1.378,0 -2.5,-1.121 -2.5,-2.5l0,-17.047c0,-1.379 1.122,-2.5 2.5,-2.5l26.012,0c1.378,0 2.5,1.121 2.5,2.5l0,17.047c0,1.379 -1.122,2.5 -2.5,2.5zm-26.012,-21.047c-0.827,0 -1.5,0.673 -1.5,1.5l0,17.047c0,0.827 0.673,1.5 1.5,1.5l26.012,0c0.827,0 1.5,-0.673 1.5,-1.5l0,-17.047c0,-0.827 -0.673,-1.5 -1.5,-1.5l-26.012,0z"/>
    <path id="svg_7" fill="#000000" d="m15.688452,13.332122c-0.665,0 -1.33,-0.221 -1.836,-0.662l-12.779,-11.137c-0.208,-0.182 -0.23,-0.497 -0.048,-0.705c0.182,-0.21 0.498,-0.23 0.706,-0.049l12.778,11.137c0.64,0.557 1.72,0.556 2.358,0l12.775,-11.136c0.207,-0.183 0.522,-0.162 0.706,0.049c0.182,0.208 0.16,0.523 -0.048,0.705l-12.776,11.135c-0.506,0.442 -1.171,0.663 -1.836,0.663z"/>
   </g>
   <g transform="matrix(18.484933399196052,0,0,18.484933399196052,0,0) " id="svg_8"/>
   <g transform="matrix(18.484933399196052,0,0,18.484933399196052,0,0) " id="svg_9"/>
   <g transform="matrix(18.484933399196052,0,0,18.484933399196052,0,0) " id="svg_10"/>
   <g transform="matrix(18.484933399196052,0,0,18.484933399196052,0,0) " id="svg_11"/>
   <g transform="matrix(18.484933399196052,0,0,18.484933399196052,0,0) " id="svg_12"/>
   <g transform="matrix(18.484933399196052,0,0,18.484933399196052,0,0) " id="svg_13"/>
   <g transform="matrix(18.484933399196052,0,0,18.484933399196052,0,0) " id="svg_14"/>
   <g transform="matrix(18.484933399196052,0,0,18.484933399196052,0,0) " id="svg_15"/>
   <g transform="matrix(18.484933399196052,0,0,18.484933399196052,0,0) " id="svg_16"/>
   <g transform="matrix(18.484933399196052,0,0,18.484933399196052,0,0) " id="svg_17"/>
   <g transform="matrix(18.484933399196052,0,0,18.484933399196052,0,0) " id="svg_18"/>
   <g transform="matrix(18.484933399196052,0,0,18.484933399196052,0,0) " id="svg_19"/>
   <g transform="matrix(18.484933399196052,0,0,18.484933399196052,0,0) " id="svg_20"/>
   <g transform="matrix(18.484933399196052,0,0,18.484933399196052,0,0) " id="svg_21"/>
   <g transform="matrix(18.484933399196052,0,0,18.484933399196052,0,0) " id="svg_22"/>
  </g>
 </g>
</svg>